<?xml version="1.0" encoding="UTF-8"?>
<!DOCTYPE svg PUBLIC "-//W3C//DTD SVG 1.1//EN" "http://www.w3.org/Graphics/SVG/1.1/DTD/svg11.dtd">
<svg version="1.1" xmlns="http://www.w3.org/2000/svg" xmlns:xlink="http://www.w3.org/1999/xlink" x="0px" y="0px" width="128" height="128" viewBox="0, 0, 128, 128">
  <g id="Background">
    <rect x="0" y="0" width="128" height="128" fill="#000000" fill-opacity="0"/>
  </g>
  <g id="Background">
    <path d="M18.093,6 L109.907,6 C116.561,6 122,11.441 122,18.095 L122,109.907 C122,116.561 116.561,122 109.907,122 L18.093,122 C11.439,122 6,116.561 6,109.907 L6,18.095 C6,11.441 11.439,6 18.093,6" fill="#727272"/>
    <path d="M37.723,6 L91.361,6 C93.685,9.507 94.854,13.691 94.854,18.546 C94.854,22.433 93.794,26.21 91.68,29.881 C89.565,33.548 87.168,36.85 84.492,39.787 C83.369,40.997 82.291,42.121 81.253,43.157 C80.217,44.195 79.314,45.313 78.537,46.523 C77.756,47.733 77.131,49.071 76.655,50.538 C76.18,52.008 75.943,53.776 75.943,55.849 L75.943,58.05 L50.687,58.05 L50.687,55.2 C50.687,53.301 50.861,51.446 51.208,49.634 C51.551,47.82 52.136,45.938 52.953,43.998 C53.774,42.057 54.939,40.006 56.45,37.845 C57.963,35.686 59.885,33.27 62.215,30.594 C63.425,29.297 64.59,27.785 65.713,26.058 C66.836,24.333 67.398,22.433 67.398,20.36 C67.398,18.29 66.942,16.82 66.036,15.957 C65.128,15.093 63.94,14.66 62.474,14.66 C61.005,14.66 59.539,15.372 58.073,16.798 C56.602,18.222 55.524,21.053 54.834,25.282 L31.132,22.433 C31.908,17.51 33.287,13.281 35.274,9.741 C36.028,8.402 36.841,7.157 37.723,6" fill="#EBECEC"/>
    <path d="M104.015,114.607 L66.206,114.607 L75.66,91.777 L94.563,91.777 z" fill="#EBEDED"/>
    <path d="M82.647,86.428 L44.842,86.428 L54.296,63.599 L73.193,63.599 z" fill="#EBEDED"/>
    <path d="M61.284,114.607 L23.477,114.607 L32.931,91.777 L51.834,91.777 z" fill="#EBEDED"/>
  </g>
  <defs/>
</svg>
