<?xml version="1.0" encoding="UTF-8"?>
<!DOCTYPE svg PUBLIC "-//W3C//DTD SVG 1.1//EN" "http://www.w3.org/Graphics/SVG/1.1/DTD/svg11.dtd">
<svg version="1.1" xmlns="http://www.w3.org/2000/svg" xmlns:xlink="http://www.w3.org/1999/xlink" x="0px" y="0px" width="1200" height="600" viewBox="0, 0, 1200, 600">
  <g id="Background">
    <rect x="0" y="0" width="1200" height="600" fill="#000000" fill-opacity="0"/>
  </g>
  <g id="Layer 1">
    <g>
      <g>
        <path d="M305.5,570.5 C159.145,570.5 40.5,451.855 40.5,305.5 C40.5,159.145 159.145,40.5 305.5,40.5 C451.855,40.5 570.5,159.145 570.5,305.5 C570.5,451.855 451.855,570.5 305.5,570.5 z" fill="#EBEDED"/>
        <path d="M305.5,570.5 C159.145,570.5 40.5,451.855 40.5,305.5 C40.5,159.145 159.145,40.5 305.5,40.5 C451.855,40.5 570.5,159.145 570.5,305.5 C570.5,451.855 451.855,570.5 305.5,570.5 z" fill-opacity="0" stroke="#000000" stroke-width="1"/>
      </g>
      <g>
        <path d="M305.5,40.5 C325.625,40.502 345.734,42.767 365.347,47.286 C369.514,48.246 373.629,49.416 377.771,50.482 L305.5,305.5 z" fill="#F0801A"/>
        <path d="M305.5,40.5 C325.625,40.502 345.734,42.767 365.347,47.286 C369.514,48.246 373.629,49.416 377.771,50.482 L305.5,305.5 z" fill-opacity="0" stroke="#737370" stroke-width="4"/>
      </g>
      <g>
        <path d="M377.771,50.482 L378.047,50.553 C390.525,54.105 402.735,58.566 414.557,63.909 C465.056,86.734 507.773,125.557 535.391,173.594 C568.522,231.224 578.648,300.607 563.714,365.347 C546.247,441.071 495.276,506.107 426.142,541.509 C387.946,561.068 348.285,569.958 305.5,570.5 L305.5,305.5 z" fill="#8FC7ED"/>
        <path d="M377.771,50.482 L378.047,50.553 C390.525,54.105 402.735,58.566 414.557,63.909 C465.056,86.734 507.773,125.557 535.391,173.594 C568.522,231.224 578.648,300.607 563.714,365.347 C546.247,441.071 495.276,506.107 426.142,541.509 C387.946,561.068 348.285,569.958 305.5,570.5 L305.5,305.5 z" fill-opacity="0" stroke="#737370" stroke-width="4"/>
      </g>
      <g>
        <path d="M305.5,305.5 L305.5,570.5 C289.782,570.497 274.066,569.123 258.591,566.361 C195.01,555.015 136.903,519.862 97.021,469.108 C81.186,448.956 68.281,426.514 58.881,402.669 C54.636,391.898 53.992,389.106 50.553,378.047 L50.482,377.771 z" fill="#FABA00"/>
        <path d="M305.5,305.5 L305.5,570.5 C289.782,570.497 274.066,569.123 258.591,566.361 C195.01,555.015 136.903,519.862 97.021,469.108 C81.186,448.956 68.281,426.514 58.881,402.669 C54.636,391.898 53.992,389.106 50.553,378.047 L50.482,377.771 z" fill-opacity="0" stroke="#737370" stroke-width="4"/>
      </g>
      <g>
        <path d="M305.412,40.5 L305.412,305.5 L50.394,377.771 L50.465,378.047 C37.345,330.645 37.013,280.345 50.465,232.953 C65.662,179.414 98.062,131.393 141.804,97.021 C172.232,73.111 207.851,55.985 245.565,47.286 C264.184,42.991 279.597,41.547 298.572,40.586 z" fill="#006CA9"/>
        <path d="M305.412,40.5 L305.412,305.5 L50.394,377.771 L50.465,378.047 C37.345,330.645 37.013,280.345 50.465,232.953 C65.662,179.414 98.062,131.393 141.804,97.021 C172.232,73.111 207.851,55.985 245.565,47.286 C264.184,42.991 279.597,41.547 298.572,40.586 z" fill-opacity="0" stroke="#737370" stroke-width="4"/>
      </g>
    </g>
    <g>
      <path d="M600.5,175.5 L660.5,175.5 L660.5,235.5 L600.5,235.5 z" fill="#F0801A"/>
      <path d="M600.5,175.5 L660.5,175.5 L660.5,235.5 L600.5,235.5 z" fill-opacity="0" stroke="#777773" stroke-width="4"/>
    </g>
    <g>
      <path d="M700.5,175.5 L760.5,175.5 L760.5,235.5 L700.5,235.5 z" fill="#006CA9"/>
      <path d="M700.5,175.5 L760.5,175.5 L760.5,235.5 L700.5,235.5 z" fill-opacity="0" stroke="#777773" stroke-width="4"/>
    </g>
    <g>
      <path d="M600.5,275.5 L660.5,275.5 L660.5,335.5 L600.5,335.5 z" fill="#F0801A"/>
      <path d="M600.5,275.5 L660.5,275.5 L660.5,335.5 L600.5,335.5 z" fill-opacity="0" stroke="#777773" stroke-width="4"/>
    </g>
    <g>
      <path d="M700.5,275.5 L760.5,275.5 L760.5,335.5 L700.5,335.5 z" fill="#8FC7ED"/>
      <path d="M700.5,275.5 L760.5,275.5 L760.5,335.5 L700.5,335.5 z" fill-opacity="0" stroke="#777773" stroke-width="4"/>
    </g>
    <g>
      <path d="M600.5,375.5 L660.5,375.5 L660.5,435.5 L600.5,435.5 z" fill="#F0801A"/>
      <path d="M600.5,375.5 L660.5,375.5 L660.5,435.5 L600.5,435.5 z" fill-opacity="0" stroke="#777773" stroke-width="4"/>
    </g>
    <g>
      <path d="M700.5,375.5 L760.5,375.5 L760.5,435.5 L700.5,435.5 z" fill="#FABA00"/>
      <path d="M700.5,375.5 L760.5,375.5 L760.5,435.5 L700.5,435.5 z" fill-opacity="0" stroke="#777773" stroke-width="4"/>
    </g>
    <text transform="matrix(1, 0, 0, 1, 938.162, 205)">
      <tspan x="-148.162" y="11.5" font-family="Verdana-Bold" font-size="30" fill="#294270">gold + iron = 1/4</tspan>
    </text>
    <text transform="matrix(1, 0, 0, 1, 938.162, 305)">
      <tspan x="-148.162" y="11.5" font-family="Verdana-Bold" font-size="30" fill="#294270">gold + tin = 1/2</tspan>
    </text>
    <text transform="matrix(1, 0, 0, 1, 965, 405.75)">
      <tspan x="-175" y="10.75" font-family="Verdana-Bold" font-size="30" fill="#294270">gold + copper = 1/3</tspan>
    </text>
  </g>
  <defs/>
</svg>
